<?xml version="1.0" encoding="UTF-8"?><svg id="Layer_1" xmlns="http://www.w3.org/2000/svg" viewBox="0 0 411.93 322.88"><defs><style>.cls-1{fill:#1d3461;}</style></defs><polygon class="cls-1" points="411.93 127.89 379.58 127.89 379.58 95.53 354.93 95.53 354.93 127.89 322.58 127.89 322.58 152.54 354.93 152.54 354.93 184.89 379.58 184.89 379.58 152.54 411.93 152.54 411.93 127.89"/><path class="cls-1" d="M229.93,0C189.48,0,156.58,32.9,156.58,73.35s32.9,73.35,73.35,73.35,73.35-32.91,73.35-73.35S270.37,0,229.93,0Zm0,122.05c-26.86,0-48.7-21.85-48.7-48.7s21.84-48.7,48.7-48.7,48.7,21.84,48.7,48.7-21.85,48.7-48.7,48.7Z"/><path class="cls-1" d="M82.93,48.18c-30.13,0-54.64,24.51-54.64,54.64s24.51,54.64,54.64,54.64,54.64-24.52,54.64-54.64-24.52-54.64-54.64-54.64Zm0,90.92c-20.01,0-36.28-16.28-36.28-36.28s16.27-36.28,36.28-36.28,36.28,16.27,36.28,36.28-16.28,36.28-36.28,36.28Z"/><path class="cls-1" d="M83.5,168.46h-1.14c-22.5,0-42.91,9.1-57.75,23.81-1.06,1.05-2.09,2.13-3.09,3.24-2.18,2.4-4.23,4.95-6.11,7.6-.87,1.23-1.71,2.47-2.5,3.74-5.4,8.55-9.26,18.16-11.19,28.44-.28,1.47-.52,2.96-.72,4.47-.42,3.2-.66,6.45-.69,9.76-.01,.33-.01,.67-.01,.99v38.18H108v-18.36H18.66v-19.82c0-.33,0-.66,.01-.99,.05-3.32,.35-6.58,.9-9.76,.26-1.51,.56-3.01,.93-4.47,.7-2.85,1.59-5.62,2.66-8.29,.96-2.41,2.05-4.74,3.28-6.98,1.92-3.5,4.14-6.79,6.65-9.84,1.02-1.24,2.07-2.44,3.18-3.59,11.61-12.18,27.98-19.77,46.09-19.77h1.14c15.97,0,30.59,5.91,41.77,15.66,.96-1.53,1.97-3.02,3.02-4.49,2.51-3.54,5.23-6.92,8.13-10.13-14.29-12.1-32.76-19.4-52.92-19.4Z"/><path class="cls-1" d="M230.7,161.47h-1.54c-30.2,0-57.6,12.21-77.52,31.96-1.42,1.41-2.81,2.86-4.15,4.35-2.93,3.23-5.67,6.64-8.2,10.21-1.17,1.64-2.29,3.31-3.36,5.02-7.25,11.47-12.43,24.37-15.02,38.17-.38,1.98-.7,3.98-.96,6-.57,4.3-.89,8.67-.93,13.11-.02,.44-.02,.89-.02,1.33v51.25h221.85v-51.25c0-60.74-49.41-110.15-110.15-110.15Zm85.5,136.75H143.65v-26.6c0-.45,0-.89,.02-1.33,.06-4.46,.47-8.84,1.21-13.11,.34-2.02,.75-4.03,1.24-6,.94-3.82,2.14-7.54,3.57-11.13,1.29-3.23,2.76-6.36,4.41-9.37,2.57-4.69,5.56-9.11,8.93-13.21,1.36-1.66,2.78-3.27,4.27-4.82,15.58-16.34,37.55-26.53,61.86-26.53h1.54c47.14,0,85.5,38.35,85.5,85.5v26.6Z"/></svg>