<?xml version="1.0" encoding="utf-8"?>
<!-- Generator: Adobe Illustrator 27.0.1, SVG Export Plug-In . SVG Version: 6.00 Build 0)  -->
<svg version="1.1" id="Layer_1" xmlns="http://www.w3.org/2000/svg" xmlns:xlink="http://www.w3.org/1999/xlink" x="0px" y="0px"
	 viewBox="0 0 278.9 276.5" style="enable-background:new 0 0 278.9 276.5;" xml:space="preserve">
<style type="text/css">
	.st0{fill:#1F6BD6;}
	.st1{fill:#1D3461;}
</style>
<g>
	<path class="st0" d="M64.6,138.6c0.6-1.6,0.6-3.4-0.2-5c-1.5-3.4-5.5-4.9-8.9-3.4l-22.9,10.1c-1.6,0.7-2.9,2.1-3.5,3.7
		c-0.6,1.7-0.6,3.5,0.1,5.1c1.1,2.4,3.5,3.9,6.1,3.9c0.9,0,1.9-0.2,2.8-0.6L61,142.3C62.7,141.6,64,140.2,64.6,138.6L64.6,138.6z"/>
	<path class="st0" d="M74.7,156.3c-1.5-3.4-5.5-4.9-8.9-3.4L42.9,163c-1.7,0.7-2.9,2.1-3.5,3.7c-0.6,1.7-0.6,3.5,0.1,5.1
		c1.1,2.4,3.5,3.9,6.1,3.9c0.9,0,1.9-0.2,2.8-0.6L71.2,165c1.7-0.7,2.9-2.1,3.6-3.7C75.4,159.7,75.4,157.9,74.7,156.3L74.7,156.3z"
		/>
	<path class="st1" d="M215.6,162.2l-18-40c12-8.7,16.4-24.8,10.3-38.3c-6.1-13.5-21-21.1-35.6-18.1l-18-40
		c-4.3-9.6-15.7-14-25.4-9.7c-8.6,3.8-13.2,13.1-10.8,22.2l-17.7,30.3c-7.2,12.6-18.5,22.8-31.8,28.7l-48.3,21.3
		c-7.8,3.4-13.7,9.7-16.8,17.6c-3,7.9-2.8,16.4,0.7,24.1L14.3,183c7.1,15.9,26,23.1,42,16l7.6-3.4l31.4,69.9
		c3.2,7.1,10.2,11.3,17.6,11.3c2.6,0,5.3-0.5,7.8-1.6c4.7-2.1,8.3-5.9,10.2-10.7c1.8-4.8,1.7-9.9-0.4-14.6l-21.2-47.1l5.3-2.4
		c4.7-2.1,8.3-5.9,10.2-10.7c1.8-4.8,1.7-9.9-0.4-14.6l-1.2-2.7c8.2-1.1,16.4-0.7,24.5,1.1l34.6,7.4c5.3,7.5,15.2,10.2,23.6,6.5
		c4.7-2.1,8.3-5.9,10.2-10.7C217.9,172,217.7,166.8,215.6,162.2L215.6,162.2z M178,78.5c7.5-0.3,14.5,3.9,17.6,10.8
		c3.1,6.8,1.6,14.9-3.7,20.2L178,78.5z M142.1,31.2l61.2,136.4c0.6,1.4,0.6,2.9,0.1,4.4c-0.6,1.5-1.7,2.6-3.1,3.3
		c-2.9,1.3-6.4,0-7.7-2.9L131.4,35.9c-0.6-1.4-0.7-3-0.1-4.4c0.6-1.5,1.6-2.6,3.1-3.2c0.8-0.4,1.6-0.5,2.4-0.5
		C139.1,27.8,141.2,29,142.1,31.2L142.1,31.2z M86.8,185.4l31.4,70c0.6,1.4,0.7,3,0.1,4.4c-0.6,1.5-1.7,2.6-3.1,3.2
		c-2.9,1.3-6.4,0-7.7-2.9l-31.4-69.9L86.8,185.4L86.8,185.4z M175.1,165.7l-24.6-5.2c-6-1.4-12.1-2-18.2-2c-9.2,0-18.3,1.5-27.1,4.6
		l-25.4-56.5c13.5-7.3,24.7-18.2,32.2-31.4l12.7-21.6L175.1,165.7L175.1,165.7z M99,180c5.5-2.4,7.4-3.2,10.8-4.4l2.3,5
		c0.6,1.4,0.7,3,0.1,4.4s-1.7,2.6-3.1,3.2l-5.3,2.4C103.8,190.6,99,180,99,180z M50.8,186.8c-9.3,4.1-20.1-0.1-24.3-9.2l-10.2-22.7
		c-2-4.4-2.1-9.4-0.4-14c1.8-4.6,5.2-8.2,9.6-10.1l42-18.6l25.2,56.1L50.8,186.8L50.8,186.8z"/>
</g>
<path class="st0" d="M260.1,54.7L226.3,69c-3,1.3-4.3,4.8-3,7.7c1.3,2.9,4.8,4.2,7.8,2.9l33.8-14.4c3-1.3,4.4-4.7,3-7.7
	C266.5,54.7,263.1,53.4,260.1,54.7L260.1,54.7z"/>
<path class="st0" d="M228.8,2.7l-21.5,29.6c-1.9,2.7-1.2,6.3,1.4,8.1s6.3,1.2,8.2-1.5l21.5-29.6c1.9-2.7,1.3-6.2-1.4-8.1
	C234.4-0.6,230.7,0,228.8,2.7z"/>
<path class="st0" d="M270.6,132.2l-35.1-10.7c-3.1-1-4.8-4.3-3.8-7.4s4.3-4.7,7.4-3.7l35.2,10.7c3.1,1,4.8,4.2,3.8,7.3
	C277.1,131.5,273.8,133.2,270.6,132.2L270.6,132.2z"/>
</svg>
