<?xml version="1.0" encoding="UTF-8"?>
<svg id="a" data-name="Layer 1" xmlns="http://www.w3.org/2000/svg" viewBox="0 0 256.85 252.02">
  <defs>
    <style>
      .b {
        fill: #1d3461;
      }
    </style>
  </defs>
  <g>
    <path class="b" d="M58.26,123.84c1.78-.79,3.14-2.2,3.83-3.99,.67-1.74,.61-3.64-.15-5.36-1.61-3.59-5.86-5.21-9.47-3.61l-21.71,9.59c-1.76,.78-3.11,2.19-3.79,3.97-.68,1.77-.63,3.71,.15,5.44,1.13,2.53,3.69,4.16,6.51,4.16,1.01,0,2-.21,2.93-.62l21.71-9.59Z"/>
    <path class="b" d="M40.42,142c-1.76,.78-3.11,2.19-3.79,3.97-.68,1.78-.63,3.71,.15,5.44,1.13,2.53,3.69,4.16,6.51,4.16,1.01,0,2-.21,2.93-.62l21.71-9.59c1.78-.79,3.14-2.2,3.83-3.99,.67-1.74,.61-3.64-.16-5.36-1.61-3.58-5.86-5.2-9.47-3.61l-21.71,9.59Z"/>
    <path class="b" d="M205.05,141.6l-16.75-37.31c11.28-8.56,15.26-23.96,9.46-36.87-5.8-12.92-20-20.28-33.96-17.69l-16.76-37.32c-4.27-9.52-15.56-13.82-25.16-9.58-8.42,3.72-12.92,12.77-10.8,21.63l-16.63,28.38c-6.71,11.81-17.29,21.35-29.77,26.86l-45.77,20.21c-7.57,3.34-13.37,9.43-16.32,17.13-2.93,7.65-2.71,15.96,.64,23.41l9.67,21.53c6.94,15.46,25.27,22.44,40.86,15.55l6.43-2.91,29.41,65.5c3.06,6.82,9.9,11.22,17.44,11.22,2.67,0,5.27-.55,7.72-1.63,4.66-2.06,8.23-5.81,10.05-10.55,1.81-4.71,1.67-9.83-.39-14.43l-19.71-43.89,4.29-1.89c4.66-2.06,8.24-5.81,10.06-10.55,1.81-4.71,1.67-9.83-.39-14.43l-.72-1.6c7.33-.85,14.67-.46,21.85,1.16l32.42,6.91c5.26,7.2,14.95,9.8,23.17,6.17,4.66-2.06,8.24-5.81,10.06-10.55,1.81-4.71,1.67-9.83-.39-14.43Zm-35.07-78.13c6.3,.2,12.09,4,14.67,9.75,2.58,5.75,1.55,12.56-2.52,17.33l-12.15-27.08Zm-35.97-45.3l58,129.2c.5,1.1,.52,2.35,.08,3.51-.46,1.2-1.36,2.15-2.54,2.67-2.38,1.05-5.17-.01-6.22-2.36L125.34,21.99c-.51-1.13-.54-2.39-.1-3.54,.45-1.17,1.33-2.09,2.48-2.6,.63-.28,1.29-.42,1.97-.42,1.88,0,3.57,1.08,4.32,2.75Zm-52.11,146.83l29.41,65.51c.51,1.13,.54,2.39,.1,3.54-.45,1.17-1.33,2.09-2.48,2.6-2.37,1.05-5.16-.01-6.22-2.36l-29.4-65.5,8.59-3.8Zm82.65-20.85l-21.69-4.58c-5.7-1.29-11.55-1.94-17.4-1.94-8.59,0-17.09,1.39-25.27,4.14l-23.42-52.17c12.65-7.01,23.07-17.27,30.16-29.72l11.22-19.07,46.39,103.34Zm-69.53,15.06c4.13-1.82,6.04-2.64,8.7-3.56l1.84,4.1c.51,1.13,.54,2.39,.1,3.54-.45,1.17-1.33,2.09-2.48,2.6l-4.3,1.9-3.85-8.58Zm-8.08-11.95l-39.02,17.23c-8.36,3.69-18.19-.05-21.91-8.33l-9.67-21.53c-1.8-4.01-1.92-8.49-.34-12.61,1.58-4.13,4.68-7.38,8.71-9.16l39.04-17.24,23.19,51.65Z"/>
  </g>
  <path class="b" d="M240.23,43.63l-29.17,12.4c-2.57,1.13-3.73,4.12-2.58,6.67,1.14,2.55,4.13,3.63,6.7,2.5l29.17-12.4c2.57-1.13,3.75-4.06,2.61-6.61-1.14-2.55-4.15-3.69-6.72-2.56Z"/>
  <path class="b" d="M213.23,3.72l-18.56,25.53c-1.61,2.29-1.05,5.44,1.25,7.04s5.42,1.01,7.04-1.28l18.56-25.53c1.61-2.29,1.11-5.4-1.2-7-2.3-1.6-5.48-1.04-7.09,1.24Z"/>
  <path class="b" d="M249.34,103.05l-30.33-9.26c-2.68-.86-4.15-3.7-3.28-6.36s3.71-4.05,6.39-3.19l30.33,9.26c2.68,.86,4.17,3.64,3.3,6.3-.86,2.65-3.74,4.11-6.41,3.25Z"/>
</svg>