<?xml version="1.0" encoding="utf-8"?>
<!-- Generator: Adobe Illustrator 27.0.1, SVG Export Plug-In . SVG Version: 6.00 Build 0)  -->
<svg version="1.1" id="Layer_1" xmlns="http://www.w3.org/2000/svg" xmlns:xlink="http://www.w3.org/1999/xlink" x="0px" y="0px"
	 viewBox="0 0 292 293.8" style="enable-background:new 0 0 292 293.8;" xml:space="preserve">
<style type="text/css">
	.st0{fill:#1D3461;}
</style>
<g>
	<path class="st0" d="M264.8,131.8l-22.6,22.6c0,32.1,0,64.3,0,96.4c0,3-0.3,6.1-1,9c-2.1,8.5-5.8,11.3-14.5,11.3H39.1
		c-9.7,0-14.7-4.7-15.6-14.6c-0.1-1.1-0.1-2.2-0.1-3.3V119.5H216l24-24H23.7c-0.1-1.2-0.3-2.6-0.3-3.9c0-12.4,0.1-24.9-0.1-37.4
		c0-3.4,0.8-4.9,4.5-4.8c7.2,0.2,14.4,0.3,21.5,0c4-0.2,4.9,1.6,4.8,5.1C54,60.2,54.2,66,54,71.7c-0.1,3.2,0.8,4.6,4.3,4.5
		c6-0.2,12-0.1,18.7-0.1c0-7.6,0.2-14.8-0.1-21.9c-0.2-3.9,1.3-4.9,5-4.9c33.4,0.1,66.7,0.1,100.1,0c3.8,0,5,1.2,4.8,5
		c-0.3,7-0.1,14-0.1,21.8c7.1,0,13.7,0.2,20.1-0.2c1,0,2.5-2.5,2.6-3.9c0.3-6.1,0.2-12.1,0.1-18.2c-0.1-3.2,1.1-4.6,4.4-4.5
		c8,0.2,16,0.1,23.9,0.1c2.1,0,4.2-0.1,4.2,3.1c0,13.5,0,27,0,40.8l13.5-13.5l8.4-7.8l0.8-39.8c0-1.7-0.2-3.4-0.3-5.5h-6.2
		c-14.7,0-29.4-0.1-44,0.1c-3.6,0-4.8-1.2-4.7-4.7c0.2-6.1,0.2-12.1-0.1-18.2c-0.1-1.3-1.7-3.6-2.8-3.7c-6.5-0.3-13-0.2-20-0.2
		c0,7.4-0.2,14.2,0.1,21c0.2,4.2-0.9,5.8-5.5,5.8c-32.9-0.2-65.8-0.2-98.6,0c-4.8,0-6-1.6-5.8-6.1C77.3,14,77,7.2,77,0.1
		c-6.8,0-12.8,0.2-18.9-0.1c-3.2-0.1-4.2,1.2-4.1,4.2c0.1,5.3,0,10.5,0,15.8c0,6.7,0,6.7-6.9,6.7c-15.5,0-30.9,0-47,0
		c0,2.1-0.1,3.5-0.1,4.9C0,105,0,178.5,0.1,251.9c0,4.9,0.8,9.9,2,14.6c4.3,16.6,16.8,27.2,32.1,27.2c65.7,0.1,131.5,0,197.2,0
		c9.6,0,17.3-4,23.3-11.1c6.8-8.1,10.1-17.6,10.1-28.2C264.8,213.6,264.8,172.7,264.8,131.8z"/>
	<path class="st0" d="M68,140.9h133.4l-6.8,18.5c-44.2,0-89.9,0-134,0.2c-4.6,0-5.6-1.5-5.6-5.7C55.1,140.9,54.9,140.9,68,140.9z"/>
	<path class="st0" d="M210.8,186.7c0,6.2,0,11.7,0,17.6c-1.8,0.1-3.3,0.3-4.9,0.3c-48.5,0-96.9-0.1-145.4,0.1
		c-4.5,0-5.6-1.4-5.6-5.7c0.1-12.3,0-12.3,12.3-12.3c45.6,0,91.2,0,136.8,0C206.2,186.7,208.2,186.7,210.8,186.7z"/>
	<path class="st0" d="M210.6,231c0.3,1.1,0.4,1.5,0.5,2c0.9,16.1,0.9,16.1-15,16.1c-44.8,0-89.7,0-134.5,0c-6.4,0-6.4,0-6.4-6.3
		C55,231,55,231,66.8,231c46,0,91.9,0,137.9,0C206.5,231,208.4,231,210.6,231z"/>
	<g>
		<path class="st0" d="M206.7,165.4c-1.6,0-3.1-0.6-4.2-1.8c-0.4-0.4-0.8-1-1.1-1.5c-0.8-1.5-0.9-3.3-0.2-4.9l2.4-6.1l8-20
			c0.3-0.8,0.8-1.5,1.3-2l50-50c3.2-3.2,7.5-5,12.1-5s8.9,1.8,12.1,5s5,7.5,5,12.1s-1.8,8.9-5,12.1L237,153.4l0,0
			c-0.6,0.5-1.2,0.9-1.9,1.2L208.9,165C208.2,165.2,207.4,165.4,206.7,165.4z M212.6,153.5l13.5-5.4l43.2-43.2l-8.1-8.1L217.9,140
			L212.6,153.5z M275.4,98.8l4.5-4.5c1.1-1.1,1.7-2.5,1.7-4s-0.6-3-1.7-4.1s-2.5-1.7-4.1-1.7c-1.5,0-3,0.6-4.1,1.7l-4.4,4.4
			L275.4,98.8z"/>
	</g>
</g>
</svg>
