<?xml version="1.0" encoding="utf-8"?>
<!-- Generator: Adobe Illustrator 27.0.1, SVG Export Plug-In . SVG Version: 6.00 Build 0)  -->
<svg version="1.1" id="Layer_1" xmlns="http://www.w3.org/2000/svg" xmlns:xlink="http://www.w3.org/1999/xlink" x="0px" y="0px"
	 viewBox="0 0 411.9 322.9" style="enable-background:new 0 0 411.9 322.9;" xml:space="preserve">
<style type="text/css">
	.st0{fill:#1D3461;}
</style>
<path class="st0" d="M326.2,177.8c-1.6,0-3.1-0.6-4.3-1.8c-0.5-0.4-0.8-1-1.1-1.5c-0.8-1.5-0.9-3.4-0.2-4.9l2.4-6.1l8-20.2
	c0.3-0.8,0.8-1.5,1.4-2l50.4-50.4c3.2-3.2,7.6-5,12.2-5s8.9,1.8,12.2,5c3.3,3.2,5,7.6,5,12.2s-1.8,8.9-5,12.2l-50.5,50.5l0,0
	c-0.6,0.5-1.2,0.9-1.9,1.2l-26.3,10.4C327.7,177.6,327,177.8,326.2,177.8L326.2,177.8z M332.1,165.8l13.6-5.4l43.5-43.5l-8.2-8.2
	l-43.5,43.5L332.1,165.8z M395.5,110.7l4.5-4.5c1.1-1.1,1.7-2.5,1.7-4.1s-0.6-3-1.7-4.1s-2.5-1.7-4.1-1.7s-3,0.6-4.1,1.7l-4.5,4.5
	L395.5,110.7L395.5,110.7z"/>
<path class="st0" d="M229.9,0c-40.4,0-73.3,32.9-73.3,73.3s32.9,73.3,73.3,73.3s73.4-32.9,73.4-73.3S270.4,0,229.9,0z M229.9,122.1
	c-26.9,0-48.7-21.8-48.7-48.7s21.8-48.7,48.7-48.7s48.7,21.8,48.7,48.7S256.8,122.1,229.9,122.1L229.9,122.1z"/>
<path class="st0" d="M82.9,48.2c-30.1,0-54.6,24.5-54.6,54.6s24.5,54.6,54.6,54.6s54.6-24.5,54.6-54.6S113.1,48.2,82.9,48.2z
	 M82.9,139.1c-20,0-36.3-16.3-36.3-36.3s16.3-36.3,36.3-36.3s36.3,16.3,36.3,36.3S102.9,139.1,82.9,139.1z"/>
<path class="st0" d="M83.5,168.5h-1.1c-22.5,0-42.9,9.1-57.8,23.8c-1.1,1.1-2.1,2.1-3.1,3.2c-2.2,2.4-4.2,4.9-6.1,7.6
	c-0.9,1.2-1.7,2.5-2.5,3.7c-5.4,8.6-9.3,18.2-11.2,28.4c-0.3,1.5-0.5,3-0.7,4.5c-0.4,3.2-0.7,6.4-0.7,9.8c0,0.3,0,0.7,0,1v38.2H108
	v-18.4H18.7v-19.8c0-0.3,0-0.7,0-1c0-3.3,0.4-6.6,0.9-9.8c0.3-1.5,0.6-3,0.9-4.5c0.7-2.9,1.6-5.6,2.7-8.3c1-2.4,2-4.7,3.3-7
	c1.9-3.5,4.1-6.8,6.6-9.8c1-1.2,2.1-2.4,3.2-3.6c11.6-12.2,28-19.8,46.1-19.8h1.1c16,0,30.6,5.9,41.8,15.7c1-1.5,2-3,3-4.5
	c2.5-3.5,5.2-6.9,8.1-10.1C122.1,175.8,103.7,168.5,83.5,168.5L83.5,168.5z"/>
<path class="st0" d="M230.7,161.5h-1.5c-30.2,0-57.6,12.2-77.5,32c-1.4,1.4-2.8,2.9-4.1,4.4c-2.9,3.2-5.7,6.6-8.2,10.2
	c-1.2,1.6-2.3,3.3-3.4,5c-7.2,11.5-12.4,24.4-15,38.2c-0.4,2-0.7,4-1,6c-0.6,4.3-0.9,8.7-0.9,13.1c0,0.4,0,0.9,0,1.3v51.2H341v-51.2
	C340.9,210.9,291.4,161.5,230.7,161.5L230.7,161.5z M316.2,298.2H143.6v-26.6c0-0.5,0-0.9,0-1.3c0.1-4.5,0.5-8.8,1.2-13.1
	c0.3-2,0.8-4,1.2-6c0.9-3.8,2.1-7.5,3.6-11.1c1.3-3.2,2.8-6.4,4.4-9.4c2.6-4.7,5.6-9.1,8.9-13.2c1.4-1.7,2.8-3.3,4.3-4.8
	c15.6-16.3,37.6-26.5,61.9-26.5h1.5c47.1,0,85.5,38.3,85.5,85.5v26.5H316.2z"/>
</svg>
