<?xml version="1.0" encoding="UTF-8"?><svg id="Layer_1" xmlns="http://www.w3.org/2000/svg" viewBox="0 0 282.04 293.75"><defs><style>.cls-1{fill:#1d3461;}</style></defs><path class="cls-1" d="M260.03,92.65c1.83,0,3.57,.57,5.01,1.66v-15.07c-7.28-1.66-15.23,.34-20.88,5.99l-2.67,2.67v7.81h-7.81l-23.56,23.56h19.78l10.52-10.52,11.95,11.95-10.89,10.89v19.78l23.56-23.56v-19.79l-2.78,2.78-11.94-11.94,3.73-3.73c1.6-1.61,3.73-2.48,5.98-2.48Zm0-18.98c1.7,0,3.38,.15,5.01,.46V26.51h-55.23V0h-23.56V26.51H77.28V0h-23.55V26.51H0V252.31c0,23.24,14.85,41.44,33.8,41.44H231.24c18.96,0,33.8-18.21,33.8-41.44v-117.43l-23.56,23.57v93.86c0,10.24-5.41,17.88-10.24,17.88H33.8c-4.84,0-10.24-7.64-10.24-17.88V119.27H203.06l23.55-23.56H23.56V50.07h30.17v26.5h23.55v-26.5h108.97v26.5h23.56v-26.5h31.68v30.8c5.06-4.65,11.6-7.2,18.54-7.2Z"/><g><path class="cls-1" d="M181.69,140.64l-10.47,10.47c-1.15,1.13-2.08,2.54-2.68,4.06l-1.69,4.24H54.68v-18.77h127.01Z"/><path class="cls-1" d="M208.55,140.64l-2.12,2.12-16.66,16.65h-17.54l.95-2.39c.35-.88,.89-1.69,1.56-2.36l14.02-14.02h19.79Z"/><path class="cls-1" d="M157.25,204.77H54.68v-18.77h101.6l-2.15,5.41c-1.28,3.19-1.11,6.78,.44,9.85,.57,1.13,1.32,2.16,2.22,3.06,.15,.15,.3,.3,.46,.45Z"/><path class="cls-1" d="M206.86,186l-.39,.39s-.03,.03-.04,.03c-.68,.66-1.45,1.17-2.33,1.52l-20.6,8.19-7.23,2.87-8.41,3.34c-.84,.34-1.71,.5-2.58,.5-1.83,0-3.61-.71-4.95-2.05-.53-.54-.97-1.14-1.3-1.79-.89-1.76-1.01-3.85-.26-5.74l2.88-7.26h45.21Z"/><path class="cls-1" d="M211.07,188.86v15.91h-35.78l30.64-12.18c1.21-.47,2.33-1.15,3.34-2l.14-.07,1.66-1.66Z"/><rect class="cls-1" x="54.68" y="230.45" width="156.39" height="18.77"/></g><path class="cls-1" d="M275.89,85.23c-3.09-3.09-6.87-5.09-10.85-5.99-7.28-1.66-15.23,.34-20.88,5.99l-2.67,2.67-7.81,7.81-23.56,23.56-15.26,15.27-20.12,20.12c-.67,.67-1.21,1.48-1.56,2.36l-.95,2.39-2.14,5.4-7.98,20.04-.46,1.15-2.88,7.26c-.75,1.89-.63,3.98,.26,5.74,.33,.65,.77,1.25,1.3,1.79,1.34,1.34,3.12,2.05,4.95,2.05,.87,0,1.74-.16,2.58-.5l8.41-3.34,7.23-2.87,20.6-8.19c.88-.35,1.65-.86,2.33-1.52,.01,0,.02-.01,.04-.03l.39-.39,17.32-17.33,51.71-51.71c4.24-4.24,6.58-9.88,6.58-15.86s-2.34-11.64-6.58-15.87Zm-34.41,46.36l-17.3,17.29-17.75,17.76-8.83,8.83-19.82,7.87,7.87-19.81,4.12-4.12,16.66-16.65,2.12-2.12,15.63-15.65,16.24-16.24,11.95,11.95-10.89,10.89Zm24.52-24.53l-.96,.96-2.78,2.78-11.94-11.94,3.73-3.73c1.6-1.61,3.73-2.48,5.98-2.48,1.83,0,3.57,.57,5.01,1.66,.34,.24,.66,.51,.96,.82,1.59,1.59,2.47,3.71,2.47,5.97s-.88,4.37-2.47,5.96Z"/><path class="cls-1" d="M275.89,85.23c-3.09-3.09-6.87-5.09-10.85-5.99-7.28-1.66-15.23,.34-20.88,5.99l-2.67,2.67-7.81,7.81-23.56,23.56-15.26,15.27-20.12,20.12c-.67,.67-1.21,1.48-1.56,2.36l-.95,2.39-2.14,5.4-7.98,20.04-.46,1.15-2.88,7.26c-.75,1.89-.63,3.98,.26,5.74,.33,.65,.77,1.25,1.3,1.79,1.34,1.34,3.12,2.05,4.95,2.05,.87,0,1.74-.16,2.58-.5l8.41-3.34,7.23-2.87,20.6-8.19c.88-.35,1.65-.86,2.33-1.52,.01,0,.02-.01,.04-.03l.39-.39,17.32-17.33,51.71-51.71c4.24-4.24,6.58-9.88,6.58-15.86s-2.34-11.64-6.58-15.87Zm-34.41,46.36l-17.3,17.29-17.75,17.76-8.83,8.83-19.82,7.87,7.87-19.81,4.12-4.12,16.66-16.65,2.12-2.12,15.63-15.65,16.24-16.24,11.95,11.95-10.89,10.89Zm24.52-24.53l-.96,.96-2.78,2.78-11.94-11.94,3.73-3.73c1.6-1.61,3.73-2.48,5.98-2.48,1.83,0,3.57,.57,5.01,1.66,.34,.24,.66,.51,.96,.82,1.59,1.59,2.47,3.71,2.47,5.97s-.88,4.37-2.47,5.96Z"/></svg>