<?xml version="1.0" encoding="UTF-8"?><svg id="Layer_1" xmlns="http://www.w3.org/2000/svg" viewBox="0 0 266.16 294.51"><defs><style>.cls-1{fill:#1d3461;}</style></defs><path class="cls-1" d="M210.42,26.58V0h-23.63V26.58H77.51V0h-23.62V26.58H0V253.04C0,276.35,14.9,294.6,33.9,294.6H231.91c19,0,33.89-18.25,33.89-41.56V26.58h-55.39Zm31.77,226.46c0,10.26-5.42,17.94-10.27,17.94H33.9c-4.85,0-10.27-7.68-10.27-17.94V119.61H242.18V253.04Zm0-157.05H23.63V50.21h30.25v26.58h23.62v-26.58h109.28v26.58h23.63v-26.58h31.77v45.78Z"/><g><path class="cls-1" d="M94.05,162.22h0c.96,1.51,2.63,2.35,4.38,2.26,.19-.01,.38-.03,.58-.07,.65-.11,1.25-.35,1.81-.7,1.1-.71,1.86-1.8,2.14-3.08,.28-1.28,.05-2.59-.65-3.68l-10.17-16.14c-.71-1.1-1.8-1.86-3.07-2.14-1.28-.28-2.59-.05-3.69,.66-1.1,.7-1.86,1.8-2.14,3.07-.28,1.28-.05,2.59,.65,3.68l10.16,16.13Z"/><path class="cls-1" d="M75.89,193.37c.43,.12,.86,.18,1.3,.18,.19,0,.38-.01,.57-.03,1.99-.23,3.61-1.63,4.15-3.56,.35-1.26,.18-2.58-.46-3.72-.63-1.11-1.64-1.91-2.86-2.27l-18.97-7.82-.18-.06c-1.26-.35-2.58-.18-3.72,.46-1.14,.65-1.96,1.7-2.3,2.95-.35,1.26-.19,2.58,.46,3.72,.63,1.11,1.64,1.91,2.86,2.28l18.97,7.82,.18,.06Z"/><path class="cls-1" d="M83.85,227.14c2.35-1.33,3.17-4.32,1.84-6.67-.65-1.14-1.69-1.96-2.96-2.3-1.24-.34-2.53-.19-3.66,.43l-17.69,8.16-.12,.06c-1.14,.65-1.95,1.7-2.3,2.95-.35,1.26-.18,2.58,.46,3.72,.88,1.55,2.5,2.48,4.25,2.48,.19,0,.39-.01,.58-.03,.63-.07,1.23-.27,1.78-.57l17.69-8.16,.11-.06Z"/><path class="cls-1" d="M125.02,228.16l-.44-1.05-1.13,.12c-3.42,.37-6.81,.08-10.1-.86-10.43-2.97-17.99-11.83-19.26-22.59-.83-7.08,1.14-14.07,5.57-19.68,4.43-5.61,10.77-9.16,17.84-9.99,3.41-.4,6.81-.15,10.09,.74,4.54,1.23,8.7,3.66,12.03,7.02l.89,.9,1.05-.71c1.92-1.29,3.83-2.54,5.69-3.73l1.54-.98-1.23-1.34c-4.69-5.12-10.7-8.78-17.37-10.6-4.51-1.23-9.16-1.57-13.83-1.02-20,2.36-34.35,20.54-31.99,40.54,1.73,14.7,12.07,26.82,26.34,30.87,3.23,.92,6.54,1.38,9.88,1.38,1.43,0,2.88-.08,4.32-.25,.77-.09,1.48-.2,2.17-.32l2.16-.4-1.12-1.89c-1.17-1.97-2.21-4.05-3.1-6.15Z"/><path class="cls-1" d="M110.91,155.98c.29,2.49,2.41,4.32,4.86,4.32,.19,0,.38-.01,.58-.03,1.3-.15,2.46-.8,3.27-1.83,.81-1.03,1.17-2.31,1.02-3.6l-.97-8.25c-.32-2.68-2.76-4.59-5.43-4.29-2.68,.32-4.6,2.75-4.29,5.43l.97,8.25Z"/><path class="cls-1" d="M74.48,169.62l6.52,5.14c.87,.69,1.93,1.05,3.02,1.05,.19,0,.39-.01,.58-.03,1.3-.15,2.46-.8,3.27-1.83,1.67-2.12,1.31-5.2-.81-6.87l-6.52-5.14c-2.12-1.67-5.2-1.31-6.87,.81-.81,1.03-1.17,2.31-1.02,3.6,.15,1.3,.8,2.46,1.83,3.27Z"/><path class="cls-1" d="M74.81,200.65l-8.25,.97c-2.68,.32-4.6,2.75-4.29,5.43,.15,1.3,.8,2.46,1.83,3.27,.87,.69,1.93,1.05,3.02,1.05,.19,0,.39-.01,.58-.03l8.25-.97c1.3-.15,2.46-.8,3.27-1.83,.81-1.03,1.17-2.31,1.02-3.6-.32-2.68-2.76-4.6-5.43-4.29Z"/><path class="cls-1" d="M94.94,232.41h0c-2.12-1.67-5.2-1.31-6.87,.81l-5.14,6.52c-.81,1.03-1.17,2.31-1.02,3.6,.15,1.3,.8,2.46,1.83,3.27,.87,.69,1.93,1.05,3.02,1.05,.19,0,.39-.01,.58-.03,1.3-.15,2.46-.8,3.27-1.83l5.14-6.52c1.67-2.12,1.31-5.2-.81-6.87Z"/><path class="cls-1" d="M203.74,150.24c-.9-1.22-2.34-1.9-3.86-1.81-1.52,.09-2.87,.93-3.61,2.26-4.36,7.72-9.75,10.8-20.48,16.93-7,4-15.72,8.98-27.56,17.12-9.95,6.84-15.78,15.34-17.33,25.27-2.15,13.79,4.79,26.17,7.81,30.76-1.96,2.93-3.9,5.98-5.9,9.29-.62,1.02-.8,2.22-.51,3.37,.29,1.16,1,2.13,2.02,2.74,.7,.43,1.5,.65,2.31,.65,.17,0,.34,0,.51-.03,1.37-.16,2.57-.93,3.29-2.12,2.09-3.46,4.08-6.58,6.04-9.5,3.38,.54,8.34,.95,14.18,.26,11.71-1.38,28.32-7.45,40.94-28.54,22.69-37.9,2.99-65.5,2.14-66.66Zm-45.36,79.18l16.86-4.18c2.38-.59,3.84-3.01,3.25-5.4-.59-2.38-3.01-3.83-5.4-3.25l-4.54,1.13c5.47-6.23,11.67-13.38,19.53-23.34,1.52-1.93,1.19-4.74-.73-6.26-.93-.74-2.1-1.07-3.28-.93-1.18,.14-2.24,.73-2.97,1.66-3.78,4.79-7.43,9.25-11.32,13.83l-.69-6.49c-.26-2.44-2.47-4.21-4.95-3.95-2.41,.29-4.17,2.48-3.91,4.89l1.57,14.77-1.71,1.94c-5.63,6.4-10.56,12.01-15.75,18.97-2.71-4.96-5.94-12.99-4.62-21.44,1.15-7.41,5.72-13.9,13.57-19.3,11.51-7.91,20.06-12.8,26.96-16.74,8.65-4.95,14.67-8.39,19.46-14.01,3.74,8.71,8.35,27.44-5.75,50.99-13.35,22.3-30.87,25.31-41.61,24.65,1.84-2.43,3.81-4.89,6.04-7.56Z"/></g></svg>