<?xml version="1.0" encoding="utf-8"?>
<!-- Generator: Adobe Illustrator 27.0.1, SVG Export Plug-In . SVG Version: 6.00 Build 0)  -->
<svg version="1.1" id="Layer_1" xmlns="http://www.w3.org/2000/svg" xmlns:xlink="http://www.w3.org/1999/xlink" x="0px" y="0px"
	 viewBox="0 0 266.2 294.5" style="enable-background:new 0 0 266.2 294.5;" xml:space="preserve">
<style type="text/css">
	.st0{fill:#1D3461;}
</style>
<path class="st0" d="M210.4,26.6V0h-23.6v26.6H77.5V0H53.9v26.6H0V253c0,23.3,14.9,41.6,33.9,41.6h198c19,0,33.9-18.2,33.9-41.6
	V26.6H210.4L210.4,26.6z M242.2,253c0,10.3-5.4,17.9-10.3,17.9h-198c-4.9,0-10.3-7.7-10.3-17.9V119.6h218.5L242.2,253L242.2,253z
	 M242.2,96H23.6V50.2h30.2v26.6h23.6V50.2h109.3v26.6h23.6V50.2h31.8L242.2,96L242.2,96z"/>
<g>
	<path class="st0" d="M94.1,162.2L94.1,162.2c1,1.5,2.6,2.4,4.4,2.3c0.2,0,0.4,0,0.6-0.1c0.7-0.1,1.2-0.4,1.8-0.7
		c1.1-0.7,1.9-1.8,2.1-3.1s0.1-2.6-0.7-3.7l-10.2-16.1c-0.7-1.1-1.8-1.9-3.1-2.1c-1.3-0.3-2.6-0.1-3.7,0.7c-1.1,0.7-1.9,1.8-2.1,3.1
		c-0.3,1.3-0.1,2.6,0.7,3.7L94.1,162.2L94.1,162.2z"/>
	<path class="st0" d="M75.9,193.4c0.4,0.1,0.9,0.2,1.3,0.2c0.2,0,0.4,0,0.6,0c2-0.2,3.6-1.6,4.2-3.6c0.3-1.3,0.2-2.6-0.5-3.7
		c-0.6-1.1-1.6-1.9-2.9-2.3l-19-7.8l-0.2-0.1c-1.3-0.4-2.6-0.2-3.7,0.5c-1.1,0.6-2,1.7-2.3,2.9c-0.3,1.3-0.2,2.6,0.5,3.7
		c0.6,1.1,1.6,1.9,2.9,2.3l19,7.8L75.9,193.4L75.9,193.4z"/>
	<path class="st0" d="M83.8,227.1c2.3-1.3,3.2-4.3,1.8-6.7c-0.7-1.1-1.7-2-3-2.3c-1.2-0.3-2.5-0.2-3.7,0.4l-17.7,8.2l-0.1,0.1
		c-1.1,0.6-2,1.7-2.3,2.9c-0.3,1.3-0.2,2.6,0.5,3.7c0.9,1.6,2.5,2.5,4.2,2.5c0.2,0,0.4,0,0.6,0c0.6-0.1,1.2-0.3,1.8-0.6l17.7-8.2
		L83.8,227.1L83.8,227.1z"/>
	<path class="st0" d="M125,228.2l-0.4-1.1l-1.1,0.1c-3.4,0.4-6.8,0.1-10.1-0.9c-10.4-3-18-11.8-19.3-22.6
		c-0.8-7.1,1.1-14.1,5.6-19.7c4.4-5.6,10.8-9.2,17.8-10c3.4-0.4,6.8-0.1,10.1,0.7c4.5,1.2,8.7,3.7,12,7l0.9,0.9l1.1-0.7
		c1.9-1.3,3.8-2.5,5.7-3.7l1.5-1l-1.2-1.3c-4.7-5.1-10.7-8.8-17.4-10.6c-4.5-1.2-9.2-1.6-13.8-1c-20,2.4-34.3,20.5-32,40.5
		c1.7,14.7,12.1,26.8,26.3,30.9c3.2,0.9,6.5,1.4,9.9,1.4c1.4,0,2.9-0.1,4.3-0.2c0.8-0.1,1.5-0.2,2.2-0.3l2.2-0.4l-1.1-1.9
		C127,232.3,125.9,230.3,125,228.2L125,228.2z"/>
	<path class="st0" d="M110.9,156c0.3,2.5,2.4,4.3,4.9,4.3c0.2,0,0.4,0,0.6,0c1.3-0.1,2.5-0.8,3.3-1.8s1.2-2.3,1-3.6l-1-8.2
		c-0.3-2.7-2.8-4.6-5.4-4.3c-2.7,0.3-4.6,2.8-4.3,5.4L110.9,156L110.9,156z"/>
	<path class="st0" d="M74.5,169.6l6.5,5.1c0.9,0.7,1.9,1.1,3,1.1c0.2,0,0.4,0,0.6,0c1.3-0.1,2.5-0.8,3.3-1.8
		c1.7-2.1,1.3-5.2-0.8-6.9l-6.5-5.1c-2.1-1.7-5.2-1.3-6.9,0.8c-0.8,1-1.2,2.3-1,3.6C72.8,167.7,73.5,168.8,74.5,169.6L74.5,169.6z"
		/>
	<path class="st0" d="M74.8,200.6l-8.2,1c-2.7,0.3-4.6,2.8-4.3,5.4c0.2,1.3,0.8,2.5,1.8,3.3c0.9,0.7,1.9,1.1,3,1.1
		c0.2,0,0.4,0,0.6,0l8.2-1c1.3-0.1,2.5-0.8,3.3-1.8s1.2-2.3,1-3.6C79.9,202.3,77.5,200.3,74.8,200.6z"/>
	<path class="st0" d="M94.9,232.4L94.9,232.4c-2.1-1.7-5.2-1.3-6.9,0.8l-5.1,6.5c-0.8,1-1.2,2.3-1,3.6s0.8,2.5,1.8,3.3
		c0.9,0.7,1.9,1.1,3,1.1c0.2,0,0.4,0,0.6,0c1.3-0.1,2.5-0.8,3.3-1.8l5.1-6.5C97.4,237.2,97.1,234.1,94.9,232.4L94.9,232.4z"/>
	<path class="st0" d="M203.7,150.2c-0.9-1.2-2.3-1.9-3.9-1.8s-2.9,0.9-3.6,2.3c-4.4,7.7-9.8,10.8-20.5,16.9c-7,4-15.7,9-27.6,17.1
		c-9.9,6.8-15.8,15.3-17.3,25.3c-2.1,13.8,4.8,26.2,7.8,30.8c-2,2.9-3.9,6-5.9,9.3c-0.6,1-0.8,2.2-0.5,3.4s1,2.1,2,2.7
		c0.7,0.4,1.5,0.6,2.3,0.6c0.2,0,0.3,0,0.5,0c1.4-0.2,2.6-0.9,3.3-2.1c2.1-3.5,4.1-6.6,6-9.5c3.4,0.5,8.3,0.9,14.2,0.3
		c11.7-1.4,28.3-7.4,40.9-28.5C224.3,179,204.6,151.4,203.7,150.2L203.7,150.2z M158.4,229.4l16.9-4.2c2.4-0.6,3.8-3,3.2-5.4
		s-3-3.8-5.4-3.2l-4.5,1.1c5.5-6.2,11.7-13.4,19.5-23.3c1.5-1.9,1.2-4.7-0.7-6.3c-0.9-0.7-2.1-1.1-3.3-0.9c-1.2,0.1-2.2,0.7-3,1.7
		c-3.8,4.8-7.4,9.2-11.3,13.8l-0.7-6.5c-0.3-2.4-2.5-4.2-4.9-3.9s-4.2,2.5-3.9,4.9l1.6,14.8l-1.7,1.9c-5.6,6.4-10.6,12-15.8,19
		c-2.7-5-5.9-13-4.6-21.4c1.1-7.4,5.7-13.9,13.6-19.3c11.5-7.9,20.1-12.8,27-16.7c8.6-4.9,14.7-8.4,19.5-14c3.7,8.7,8.4,27.4-5.8,51
		c-13.4,22.3-30.9,25.3-41.6,24.6C154.2,234.5,156.2,232.1,158.4,229.4L158.4,229.4z"/>
</g>
</svg>
