<?xml version="1.0" encoding="UTF-8"?><svg id="Layer_1" xmlns="http://www.w3.org/2000/svg" viewBox="0 0 265.04 293.75"><defs><style>.cls-1{fill:#1d3461;}</style></defs><path class="cls-1" d="M209.8,26.5V0h-23.56V26.5H77.28V0h-23.56V26.5H0V252.31c0,23.24,14.84,41.44,33.8,41.44H231.24c18.95,0,33.8-18.21,33.8-41.44V26.5h-55.23ZM23.56,50.06h30.16v26.5h23.56v-26.5h108.96v26.5h23.56v-26.5h31.68v45.65H23.56V50.06ZM241.48,252.31c0,10.24-5.41,17.88-10.24,17.88H33.8c-4.84,0-10.24-7.65-10.24-17.88V119.27H241.48V252.31h0Z"/><g><rect class="cls-1" x="54.68" y="140.64" width="156.39" height="18.77"/><rect class="cls-1" x="54.68" y="186" width="156.39" height="18.77"/><rect class="cls-1" x="54.68" y="230.45" width="156.39" height="18.77"/></g></svg>