<?xml version="1.0" encoding="utf-8"?>
<!-- Generator: Adobe Illustrator 27.0.1, SVG Export Plug-In . SVG Version: 6.00 Build 0)  -->
<svg version="1.1" id="Layer_1" xmlns="http://www.w3.org/2000/svg" xmlns:xlink="http://www.w3.org/1999/xlink" x="0px" y="0px"
	 viewBox="0 0 411.9 322.9" style="enable-background:new 0 0 411.9 322.9;" xml:space="preserve">
<style type="text/css">
	.st0{fill:#1D3461;}
	.st1{fill:#1F6BD6;}
</style>
<path class="st0" d="M229.9,0c-40.4,0-73.3,32.9-73.3,73.3s32.9,73.3,73.3,73.3s73.4-32.9,73.4-73.3S270.4,0,229.9,0z M229.9,122.1
	c-26.9,0-48.7-21.8-48.7-48.7s21.8-48.7,48.7-48.7s48.7,21.8,48.7,48.7S256.8,122.1,229.9,122.1L229.9,122.1z"/>
<path class="st0" d="M82.9,48.2c-30.1,0-54.6,24.5-54.6,54.6s24.5,54.6,54.6,54.6s54.6-24.5,54.6-54.6S113.1,48.2,82.9,48.2z
	 M82.9,139.1c-20,0-36.3-16.3-36.3-36.3s16.3-36.3,36.3-36.3s36.3,16.3,36.3,36.3S102.9,139.1,82.9,139.1z"/>
<path class="st0" d="M83.5,168.5h-1.1c-22.5,0-42.9,9.1-57.8,23.8c-1.1,1.1-2.1,2.1-3.1,3.2c-2.2,2.4-4.2,4.9-6.1,7.6
	c-0.9,1.2-1.7,2.5-2.5,3.7c-5.4,8.6-9.3,18.2-11.2,28.4c-0.3,1.5-0.5,3-0.7,4.5c-0.4,3.2-0.7,6.4-0.7,9.8c0,0.3,0,0.7,0,1v38.2H108
	v-18.4H18.7v-19.8c0-0.3,0-0.7,0-1c0-3.3,0.4-6.6,0.9-9.8c0.3-1.5,0.6-3,0.9-4.5c0.7-2.9,1.6-5.6,2.7-8.3c1-2.4,2-4.7,3.3-7
	c1.9-3.5,4.1-6.8,6.6-9.8c1-1.2,2.1-2.4,3.2-3.6c11.6-12.2,28-19.8,46.1-19.8h1.1c16,0,30.6,5.9,41.8,15.7c1-1.5,2-3,3-4.5
	c2.5-3.5,5.2-6.9,8.1-10.1C122.1,175.8,103.7,168.5,83.5,168.5L83.5,168.5z"/>
<path class="st0" d="M230.7,161.5h-1.5c-30.2,0-57.6,12.2-77.5,32c-1.4,1.4-2.8,2.9-4.1,4.4c-2.9,3.2-5.7,6.6-8.2,10.2
	c-1.2,1.6-2.3,3.3-3.4,5c-7.2,11.5-12.4,24.4-15,38.2c-0.4,2-0.7,4-1,6c-0.6,4.3-0.9,8.7-0.9,13.1c0,0.4,0,0.9,0,1.3v51.2h221.9
	v-51.2C340.9,210.9,291.4,161.5,230.7,161.5L230.7,161.5z M316.2,298.2H143.6v-26.6c0-0.5,0-0.9,0-1.3c0.1-4.5,0.5-8.8,1.2-13.1
	c0.3-2,0.8-4,1.2-6c0.9-3.8,2.1-7.5,3.6-11.1c1.3-3.2,2.8-6.4,4.4-9.4c2.6-4.7,5.6-9.1,8.9-13.2c1.4-1.7,2.8-3.3,4.3-4.8
	c15.6-16.3,37.6-26.5,61.9-26.5h1.5c47.1,0,85.5,38.3,85.5,85.5V298.2z"/>
<g>
	<path class="st1" d="M412,138.1c-2.6-6.4-6.3-12-11.1-16.7c-4.8-4.7-10.4-8.2-16.6-10.6c-2.8-1.1-5.7-1.9-8.7-2.4
		c-2.9-0.5-5.9-0.8-8.9-0.8c-0.4,0-0.8,0-1.2,0c-2.2,0.1-4.3,0.2-6.4,0.6c-4.2,0.7-8.4,1.9-12.4,3.6c-2.3,1-4.5,2.2-6.6,3.5
		c-3.5,2.2-6.8,4.9-9.7,8c-2.8,3-5,6-6.6,8.5c-2.2,3.5-3.3,6-3.4,6.2c-0.5,1.2-0.5,2.5,0,3.7c0.7,1.8,1.5,3.5,2.4,5.1
		c2.3,4.3,5.2,8.2,8.7,11.6c0.6,0.6,1.2,1.1,1.8,1.6c4.4,3.9,9.4,6.9,14.9,9c3.5,1.3,7.2,2.3,10.9,2.8c2.2,0.3,4.4,0.4,6.6,0.4
		c0.4,0,0.8,0,1.2,0c2.9-0.1,5.8-0.4,8.7-1c3.5-0.7,6.8-1.8,10.1-3.2c6.2-2.7,11.6-6.6,16.2-11.5c6.8-7.3,9.9-14.4,10.1-14.7
		C412.5,140.7,412.5,139.3,412,138.1L412,138.1z M394.8,149.9c-3.7,4-8.1,7.1-13,9.2c-2,0.9-4.1,1.6-6.2,2.1
		c-1.2,0.3-2.4,0.5-3.6,0.7c-1.9,0.5-3.8,0.8-5.8,0.8c-1.6,0-3.2-0.2-4.7-0.5c-0.8-0.1-1.6-0.2-2.5-0.3c-2.6-0.4-5-1.1-7.5-2
		c-5-1.9-9.5-4.8-13.3-8.5c-0.2-0.2-0.4-0.4-0.6-0.6c-1.2-1.3-2.4-2.6-3.4-4c-1.5-2.1-2.9-4.4-4-6.8c1-1.9,2.9-4.9,5.6-8.2
		c0.5-0.6,1.1-1.3,1.7-1.9c3.7-4,8.1-7.1,13-9.2c4.8-2.1,9.9-3.2,15.1-3.3c0.3,0,0.7,0,1,0c3,0,6,0.3,8.9,1c1.8,0.4,3.5,0.9,5.2,1.6
		c5,1.9,9.5,4.8,13.3,8.5c3.3,3.2,6,7.1,8,11.4C400.9,142.1,398.6,145.9,394.8,149.9L394.8,149.9z"/>
	<path class="st1" d="M377.4,125.3L377.4,125.3c-0.6-0.4-1.2-0.8-1.8-1.2c-2.8-1.6-6-2.6-9.4-2.6c-4.5,0-8.7,1.7-12,4.4
		c-2,1.6-3.6,3.7-4.7,6c-1.3,2.5-2,5.4-2,8.4c0,5.5,2.4,10.5,6.3,13.9l0,0c1.5,1.4,3.3,2.5,5.3,3.3c1,0.4,2,0.7,3.1,1
		c1.3,0.3,2.7,0.4,4,0.4c1.8,0,3.5-0.2,5.1-0.7c1.5-0.4,3-1.1,4.3-1.8c1.4-0.8,2.6-1.8,3.7-2.9c3.4-3.4,5.6-8.1,5.6-13.3
		C384.9,134.1,381.9,128.7,377.4,125.3L377.4,125.3z M358.8,140.2c0-1.7,0.6-3.2,1.5-4.5c1.4-1.8,3.5-2.9,5.9-2.9
		c4.1,0,7.4,3.3,7.4,7.4s-3.3,7.4-7.4,7.4c-2.4,0-4.5-1.1-5.9-2.9C359.3,143.5,358.8,141.9,358.8,140.2z"/>
</g>
</svg>
