<?xml version="1.0" encoding="UTF-8"?><svg id="Layer_1" xmlns="http://www.w3.org/2000/svg" viewBox="0 0 411.93 322.88"><defs><style>.cls-1{fill:#1d3461;}</style></defs><path class="cls-1" d="M229.93,0C189.48,0,156.58,32.9,156.58,73.35s32.9,73.35,73.35,73.35,73.35-32.91,73.35-73.35S270.37,0,229.93,0Zm0,122.05c-26.86,0-48.7-21.85-48.7-48.7s21.84-48.7,48.7-48.7,48.7,21.84,48.7,48.7-21.85,48.7-48.7,48.7Z"/><path class="cls-1" d="M82.93,48.18c-30.13,0-54.64,24.51-54.64,54.64s24.51,54.64,54.64,54.64,54.64-24.52,54.64-54.64-24.52-54.64-54.64-54.64Zm0,90.92c-20.01,0-36.28-16.28-36.28-36.28s16.27-36.28,36.28-36.28,36.28,16.27,36.28,36.28-16.28,36.28-36.28,36.28Z"/><path class="cls-1" d="M83.5,168.46h-1.14c-22.5,0-42.91,9.1-57.75,23.81-1.06,1.05-2.09,2.13-3.09,3.24-2.18,2.4-4.23,4.95-6.11,7.6-.87,1.23-1.71,2.47-2.5,3.74-5.4,8.55-9.26,18.16-11.19,28.44-.28,1.47-.52,2.96-.72,4.47-.42,3.2-.66,6.45-.69,9.76-.01,.33-.01,.67-.01,.99v38.18H108v-18.36H18.66v-19.82c0-.33,0-.66,.01-.99,.05-3.32,.35-6.58,.9-9.76,.26-1.51,.56-3.01,.93-4.47,.7-2.85,1.59-5.62,2.66-8.29,.96-2.41,2.05-4.74,3.28-6.98,1.92-3.5,4.14-6.79,6.65-9.84,1.02-1.24,2.07-2.44,3.18-3.59,11.61-12.18,27.98-19.77,46.09-19.77h1.14c15.97,0,30.59,5.91,41.77,15.66,.96-1.53,1.97-3.02,3.02-4.49,2.51-3.54,5.23-6.92,8.13-10.13-14.29-12.1-32.76-19.4-52.92-19.4Z"/><path class="cls-1" d="M230.7,161.47h-1.54c-30.2,0-57.6,12.21-77.52,31.96-1.42,1.41-2.81,2.86-4.15,4.35-2.93,3.23-5.67,6.64-8.2,10.21-1.17,1.64-2.29,3.31-3.36,5.02-7.25,11.47-12.43,24.37-15.02,38.17-.38,1.98-.7,3.98-.96,6-.57,4.3-.89,8.67-.93,13.11-.02,.44-.02,.89-.02,1.33v51.25h221.85v-51.25c0-60.74-49.41-110.15-110.15-110.15Zm85.5,136.75H143.65v-26.6c0-.45,0-.89,.02-1.33,.06-4.46,.47-8.84,1.21-13.11,.34-2.02,.75-4.03,1.24-6,.94-3.82,2.14-7.54,3.57-11.13,1.29-3.23,2.76-6.36,4.41-9.37,2.57-4.69,5.56-9.11,8.93-13.21,1.36-1.66,2.78-3.27,4.27-4.82,15.58-16.34,37.55-26.53,61.86-26.53h1.54c47.14,0,85.5,38.35,85.5,85.5v26.6Z"/><g><path class="cls-1" d="M412.01,138.12c-2.58-6.38-6.33-11.99-11.13-16.67-4.81-4.66-10.4-8.23-16.62-10.6-2.83-1.08-5.73-1.89-8.69-2.42-2.91-.53-5.88-.8-8.88-.8-.4,0-.81,0-1.22,.02-2.17,.05-4.32,.24-6.44,.57-4.25,.66-8.38,1.86-12.35,3.59-2.29,1-4.48,2.18-6.58,3.51-3.53,2.23-6.77,4.91-9.66,8.01-2.84,3.04-5.03,6.05-6.64,8.53-2.25,3.5-3.34,6-3.42,6.17-.51,1.19-.52,2.54-.03,3.74,.71,1.76,1.51,3.46,2.4,5.11,2.33,4.3,5.25,8.18,8.72,11.55,.58,.56,1.17,1.11,1.77,1.63,4.39,3.88,9.37,6.89,14.86,8.98,3.53,1.34,7.2,2.28,10.93,2.78,2.19,.3,4.4,.45,6.63,.45,.41,0,.81,0,1.22-.02,2.94-.07,5.84-.4,8.69-.98,3.46-.69,6.83-1.76,10.09-3.19,6.17-2.69,11.64-6.57,16.25-11.5,6.84-7.33,9.93-14.42,10.06-14.72,.51-1.17,.52-2.53,.04-3.72Zm-17.2,11.82c-3.7,3.97-8.1,7.09-13.05,9.25-2.02,.89-4.08,1.6-6.2,2.14-1.17,.3-2.36,.54-3.56,.73-1.86,.5-3.82,.77-5.84,.77-1.61,0-3.18-.17-4.69-.5-.83-.08-1.65-.19-2.46-.33-2.56-.43-5.05-1.11-7.48-2.04-4.98-1.9-9.47-4.75-13.31-8.5-.2-.19-.39-.38-.57-.57-1.25-1.26-2.4-2.6-3.44-4.02-1.55-2.1-2.91-4.37-4.03-6.79,1.02-1.89,2.87-4.94,5.65-8.23,.52-.63,1.09-1.27,1.69-1.91,3.7-3.97,8.09-7.08,13.04-9.25,4.8-2.09,9.88-3.23,15.13-3.35,.33,0,.66,0,.98,0,3.02,0,5.99,.34,8.88,1,1.78,.41,3.52,.94,5.24,1.59,4.98,1.89,9.47,4.75,13.31,8.5,3.33,3.24,6.04,7.08,8.04,11.39-1.21,2.25-3.58,6.11-7.34,10.13Z"/><path class="cls-1" d="M377.36,125.26s0,0,0,0c-.57-.42-1.17-.82-1.78-1.17-2.76-1.62-5.98-2.55-9.4-2.55-4.54,0-8.72,1.65-11.97,4.36-1.96,1.64-3.57,3.66-4.72,5.95-1.28,2.52-1.99,5.36-1.99,8.38,0,5.53,2.42,10.52,6.27,13.94h0c1.54,1.39,3.32,2.51,5.26,3.32,.99,.41,2.02,.74,3.09,.97,1.3,.3,2.66,.45,4.05,.45,1.77,0,3.47-.24,5.08-.7,1.53-.43,2.97-1.05,4.32-1.84,1.36-.79,2.62-1.76,3.73-2.85,3.43-3.4,5.56-8.1,5.56-13.29,0-6.11-2.96-11.55-7.5-14.97Zm-18.58,14.97c0-1.68,.57-3.23,1.51-4.48,1.35-1.77,3.48-2.92,5.88-2.92,4.08,0,7.39,3.32,7.39,7.4s-3.31,7.4-7.39,7.4c-2.4,0-4.53-1.15-5.88-2.92-.95-1.24-1.51-2.8-1.51-4.48Z"/></g></svg>