<?xml version="1.0" encoding="UTF-8"?><svg id="Layer_1" xmlns="http://www.w3.org/2000/svg" viewBox="0 0 282.04 293.75"><defs><style>.cls-1{fill:#1d3461;}</style></defs><path class="cls-1" d="M245.5,152.08c-1.33,.27-2.67,.49-4.02,.66v99.57c0,10.24-5.41,17.88-10.24,17.88H33.8c-4.84,0-10.24-7.64-10.24-17.88V119.27H183.91c-.02-.05-.04-.09-.06-.14-.98-2.46-.95-5.24,.08-7.64,.23-.53,1.46-3.27,3.86-7,2.02-3.13,4.29-6.08,6.75-8.78H23.56V50.07h30.17v26.5h23.55v-26.5h108.97v26.5h23.56v-26.5h31.68v27.89c1.31,.14,2.61,.33,3.91,.56,3.31,.6,6.57,1.51,9.7,2.71,3.5,1.33,6.82,3,9.94,4.99V26.51h-55.23V0h-23.56V26.51H77.28V0h-23.55V26.51H0V252.31c0,23.24,14.85,41.44,33.8,41.44H231.24c18.96,0,33.8-18.21,33.8-41.44v-108.3c-2.61,1.73-5.38,3.24-8.29,4.51-3.61,1.58-7.4,2.78-11.25,3.56Z"/><path class="cls-1" d="M211.07,147.98c-4.15-1.94-8.02-4.4-11.55-7.34H54.68v18.77H211.07v-11.43Z"/><rect class="cls-1" x="54.68" y="186" width="156.39" height="18.77"/><rect class="cls-1" x="54.68" y="230.45" width="156.39" height="18.77"/><path class="cls-1" d="M246.32,100.52s-.01-.01-.01-.01c-.57-.43-1.18-.83-1.8-1.19-.85-.5-1.74-.93-2.67-1.28h-.01c-2.13-.85-4.44-1.3-6.86-1.3-2.8,0-5.46,.61-7.86,1.72-1.55,.71-2.99,1.62-4.28,2.7-1.98,1.66-3.62,3.71-4.79,6.04-1.29,2.55-2.02,5.44-2.02,8.49,0,1.22,.12,2.42,.35,3.58,.79,4.17,2.96,7.86,6.01,10.57,1.04,.93,2.19,1.74,3.41,2.43h.02c.62,.35,1.26,.66,1.91,.93,1.01,.42,2.05,.76,3.14,.99,1.32,.3,2.7,.46,4.11,.46,1.79,0,3.52-.25,5.16-.71,.46-.13,.91-.28,1.35-.45,1.05-.38,2.06-.86,3.03-1.42,.16-.1,.33-.19,.49-.31h.01c1.19-.73,2.29-1.61,3.29-2.59,3.47-3.44,5.63-8.22,5.63-13.48,0-6.19-2.99-11.72-7.61-15.17Zm-4.84,18.88c-1.28,2.27-3.72,3.8-6.51,3.8-2.43,0-4.59-1.17-5.96-2.97-.23-.3-.44-.62-.62-.96-.58-1.07-.91-2.29-.91-3.58,0-1.7,.57-3.28,1.53-4.53,1.37-1.81,3.53-2.97,5.96-2.97,4.14,0,7.5,3.37,7.5,7.5,0,1.35-.36,2.62-.99,3.71Z"/><path class="cls-1" d="M281.47,113.56c-2.62-6.48-6.41-12.16-11.29-16.91-1.63-1.58-3.34-3.03-5.14-4.36-3.58-2.65-7.51-4.79-11.72-6.39-2.87-1.1-5.81-1.92-8.81-2.46-1-.18-2.01-.33-3.02-.45-1.97-.24-3.97-.36-5.99-.36-.41,0-.83,0-1.24,0-2.2,.06-4.38,.25-6.54,.58-4.3,.66-8.49,1.88-12.52,3.64-2.32,1.02-4.55,2.21-6.67,3.55-2.46,1.56-4.78,3.32-6.94,5.3-.99,.9-1.95,1.84-2.87,2.83-2.87,3.09-5.09,6.13-6.72,8.66-2.29,3.55-3.4,6.08-3.47,6.26-.52,1.2-.53,2.58-.04,3.79,.27,.68,.56,1.36,.87,2.02,.48,1.08,1.01,2.13,1.57,3.16,2.36,4.37,5.32,8.3,8.84,11.72,.59,.57,1.18,1.13,1.79,1.66,2.03,1.8,4.19,3.41,6.47,4.83,.99,.62,2.01,1.21,3.04,1.75,1.79,.95,3.65,1.8,5.57,2.52,3.58,1.37,7.3,2.32,11.08,2.83,2.22,.29,4.47,.44,6.73,.44,.42,0,.83,0,1.24,0,1.95-.05,3.88-.2,5.79-.48,1.02-.13,2.03-.3,3.03-.51,3.51-.71,6.93-1.79,10.24-3.24,3.69-1.62,7.13-3.64,10.29-6.06,2.2-1.68,4.26-3.55,6.18-5.61,6.95-7.44,10.08-14.62,10.21-14.93,.51-1.19,.53-2.57,.04-3.78Zm-16.43,10.88c-.32,.37-.66,.74-1.01,1.11-3.75,4.02-8.21,7.18-13.23,9.38-1.2,.53-2.42,.99-3.66,1.39-.87,.29-1.75,.55-2.63,.77-1.01,.26-2.01,.48-3.03,.65-.2,.04-.39,.07-.59,.1-1.88,.51-3.87,.78-5.92,.78-1.63,0-3.22-.17-4.76-.5-.83-.09-1.66-.2-2.49-.34-1.26-.21-2.5-.48-3.73-.81-1.3-.35-2.58-.77-3.85-1.25-5.06-1.93-9.6-4.83-13.51-8.62-.2-.19-.39-.38-.58-.59-1.26-1.27-2.43-2.63-3.48-4.08-.76-1.02-1.46-2.07-2.11-3.16-.73-1.19-1.38-2.43-1.98-3.72,1.04-1.92,2.91-5.01,5.73-8.35,.53-.64,1.1-1.29,1.71-1.94,3.76-4.03,8.21-7.18,13.23-9.38,.14-.06,.27-.12,.41-.17,1.93-.82,3.9-1.49,5.92-2,2.93-.74,5.95-1.16,9.02-1.23,.34-.01,.67-.01,1-.01,2.02,0,4.02,.15,5.99,.45,.58,.08,1.16,.18,1.74,.29,.43,.08,.86,.17,1.28,.27,1.8,.42,3.57,.95,5.31,1.61,5.06,1.92,9.6,4.82,13.5,8.62,.6,.58,1.18,1.18,1.72,1.8,2.61,2.88,4.76,6.15,6.44,9.76-1.12,2.06-3.2,5.5-6.44,9.17Z"/></svg>