<?xml version="1.0" encoding="utf-8"?>
<!-- Generator: Adobe Illustrator 27.0.1, SVG Export Plug-In . SVG Version: 6.00 Build 0)  -->
<svg version="1.1" id="Layer_1" xmlns="http://www.w3.org/2000/svg" xmlns:xlink="http://www.w3.org/1999/xlink" x="0px" y="0px"
	 viewBox="0 0 282 293.8" style="enable-background:new 0 0 282 293.8;" xml:space="preserve">
<style type="text/css">
	.st0{fill:#1D3461;}
	.st1{fill:#1F6BD6;}
</style>
<path class="st0" d="M245.5,152.1c-1.3,0.3-2.7,0.5-4,0.7v99.6c0,10.2-5.4,17.9-10.2,17.9H33.8c-4.8,0-10.2-7.6-10.2-17.9v-133
	h160.4c0-0.1,0-0.1-0.1-0.1c-1-2.5-0.9-5.2,0.1-7.6c0.2-0.5,1.5-3.3,3.9-7c2-3.1,4.3-6.1,6.8-8.8h-171V50.1h30.2v26.5h23.5V50.1h109
	v26.5h23.6V50.1h31.7V78c1.3,0.1,2.6,0.3,3.9,0.6c3.3,0.6,6.6,1.5,9.7,2.7c3.5,1.3,6.8,3,9.9,5V26.5h-55.2V0h-23.6v26.5h-109V0H53.7
	v26.5H0v225.8c0,23.2,14.9,41.4,33.8,41.4h197.4c19,0,33.8-18.2,33.8-41.4V144c-2.6,1.7-5.4,3.2-8.3,4.5
	C253.1,150.1,249.4,151.3,245.5,152.1L245.5,152.1z"/>
<path class="st0" d="M211.1,148c-4.1-1.9-8-4.4-11.6-7.3H54.7v18.8h156.4V148L211.1,148z"/>
<rect x="54.7" y="186" class="st0" width="156.4" height="18.8"/>
<rect x="54.7" y="230.4" class="st0" width="156.4" height="18.8"/>
<path class="st1" d="M246.3,100.5L246.3,100.5c-0.6-0.4-1.2-0.8-1.8-1.2c-0.9-0.5-1.7-0.9-2.7-1.3h0c-2.1-0.8-4.4-1.3-6.9-1.3
	c-2.8,0-5.5,0.6-7.9,1.7c-1.6,0.7-3,1.6-4.3,2.7c-2,1.7-3.6,3.7-4.8,6c-1.3,2.6-2,5.4-2,8.5c0,1.2,0.1,2.4,0.4,3.6
	c0.8,4.2,3,7.9,6,10.6c1,0.9,2.2,1.7,3.4,2.4h0c0.6,0.4,1.3,0.7,1.9,0.9c1,0.4,2.1,0.8,3.1,1c1.3,0.3,2.7,0.5,4.1,0.5
	c1.8,0,3.5-0.2,5.2-0.7c0.5-0.1,0.9-0.3,1.4-0.4c1.1-0.4,2.1-0.9,3-1.4c0.2-0.1,0.3-0.2,0.5-0.3h0c1.2-0.7,2.3-1.6,3.3-2.6
	c3.5-3.4,5.6-8.2,5.6-13.5C253.9,109.5,250.9,104,246.3,100.5L246.3,100.5z M241.5,119.4c-1.3,2.3-3.7,3.8-6.5,3.8
	c-2.4,0-4.6-1.2-6-3c-0.2-0.3-0.4-0.6-0.6-1c-0.6-1.1-0.9-2.3-0.9-3.6c0-1.7,0.6-3.3,1.5-4.5c1.4-1.8,3.5-3,6-3
	c4.1,0,7.5,3.4,7.5,7.5C242.5,117,242.1,118.3,241.5,119.4z"/>
<path class="st1" d="M281.5,113.6c-2.6-6.5-6.4-12.2-11.3-16.9c-1.6-1.6-3.3-3-5.1-4.4c-3.6-2.7-7.5-4.8-11.7-6.4
	c-2.9-1.1-5.8-1.9-8.8-2.5c-1-0.2-2-0.3-3-0.4c-2-0.2-4-0.4-6-0.4c-0.4,0-0.8,0-1.2,0c-2.2,0.1-4.4,0.2-6.5,0.6
	c-4.3,0.7-8.5,1.9-12.5,3.6c-2.3,1-4.6,2.2-6.7,3.6c-2.5,1.6-4.8,3.3-6.9,5.3c-1,0.9-1.9,1.8-2.9,2.8c-2.9,3.1-5.1,6.1-6.7,8.7
	c-2.3,3.6-3.4,6.1-3.5,6.3c-0.5,1.2-0.5,2.6,0,3.8c0.3,0.7,0.6,1.4,0.9,2c0.5,1.1,1,2.1,1.6,3.2c2.4,4.4,5.3,8.3,8.8,11.7
	c0.6,0.6,1.2,1.1,1.8,1.7c2,1.8,4.2,3.4,6.5,4.8c1,0.6,2,1.2,3,1.8c1.8,0.9,3.6,1.8,5.6,2.5c3.6,1.4,7.3,2.3,11.1,2.8
	c2.2,0.3,4.5,0.4,6.7,0.4c0.4,0,0.8,0,1.2,0c1.9-0.1,3.9-0.2,5.8-0.5c1-0.1,2-0.3,3-0.5c3.5-0.7,6.9-1.8,10.2-3.2
	c3.7-1.6,7.1-3.6,10.3-6.1c2.2-1.7,4.3-3.6,6.2-5.6c7-7.4,10.1-14.6,10.2-14.9C281.9,116.2,282,114.8,281.5,113.6L281.5,113.6z
	 M265,124.4c-0.3,0.4-0.7,0.7-1,1.1c-3.8,4-8.2,7.2-13.2,9.4c-1.2,0.5-2.4,1-3.7,1.4c-0.9,0.3-1.8,0.6-2.6,0.8c-1,0.3-2,0.5-3,0.6
	c-0.2,0-0.4,0.1-0.6,0.1c-1.9,0.5-3.9,0.8-5.9,0.8c-1.6,0-3.2-0.2-4.8-0.5c-0.8-0.1-1.7-0.2-2.5-0.3c-1.3-0.2-2.5-0.5-3.7-0.8
	c-1.3-0.4-2.6-0.8-3.9-1.2c-5.1-1.9-9.6-4.8-13.5-8.6c-0.2-0.2-0.4-0.4-0.6-0.6c-1.3-1.3-2.4-2.6-3.5-4.1c-0.8-1-1.5-2.1-2.1-3.2
	c-0.7-1.2-1.4-2.4-2-3.7c1-1.9,2.9-5,5.7-8.3c0.5-0.6,1.1-1.3,1.7-1.9c3.8-4,8.2-7.2,13.2-9.4c0.1-0.1,0.3-0.1,0.4-0.2
	c1.9-0.8,3.9-1.5,5.9-2c2.9-0.7,5.9-1.2,9-1.2c0.3,0,0.7,0,1,0c2,0,4,0.2,6,0.4c0.6,0.1,1.2,0.2,1.7,0.3c0.4,0.1,0.9,0.2,1.3,0.3
	c1.8,0.4,3.6,0.9,5.3,1.6c5.1,1.9,9.6,4.8,13.5,8.6c0.6,0.6,1.2,1.2,1.7,1.8c2.6,2.9,4.8,6.2,6.4,9.8
	C270.4,117.3,268.3,120.8,265,124.4z"/>
</svg>
