<?xml version="1.0" encoding="utf-8"?>
<!-- Generator: Adobe Illustrator 27.0.1, SVG Export Plug-In . SVG Version: 6.00 Build 0)  -->
<svg version="1.1" id="a" xmlns="http://www.w3.org/2000/svg" xmlns:xlink="http://www.w3.org/1999/xlink" x="0px" y="0px"
	 viewBox="0 0 342.4 245.9" style="enable-background:new 0 0 342.4 245.9;" xml:space="preserve">
<style type="text/css">
	.st0{fill:#1D3461;}
</style>
<path class="st0" d="M88.2,154.5c5.9,4.4,12.5,7.2,19.3,8.6c17.8,3.6,37-3.1,48.6-18.6c7.7-10.4,10.9-23.2,9-36
	c-1.9-12.8-8.7-24.1-19-31.9c-10.4-7.7-23.2-10.9-36-9c-12.8,1.9-24.1,8.7-31.9,19C62.2,108.1,66.7,138.5,88.2,154.5L88.2,154.5z
	 M92.4,97.2c4.9-6.6,12.1-10.9,20.2-12.1c3.6-0.5,7.2-0.4,10.6,0.3c4.4,0.9,8.5,2.7,12.2,5.5c13.6,10.1,16.5,29.4,6.4,43.1
	c-10.1,13.6-29.4,16.5-43.1,6.4S82.3,110.8,92.4,97.2L92.4,97.2z"/>
<path class="st0" d="M285.6,206.8c1.1,0.7,2.2,1.4,3.4,2l0.6,0.3c4,2.4,7.7,4.5,11.4,6.6c0.4,0.2,0.8,0.4,1.2,0.6
	c0.1,0,0.2,0.1,0.3,0.1l0.1,0.1c0.3,0.1,0.5,0.2,0.8,0.3c0.1,0.1,0.3,0.1,0.5,0.2c0.3,0.1,0.5,0.2,0.8,0.2c0.1,0,0.3,0.1,0.5,0.1
	l0.1,0c0.2,0.1,0.4,0.1,0.5,0.1c0.6,0.1,1.2,0.2,1.8,0.2h0.3c0.5,0,1,0,1.7,0h0.3c0.6-0.1,1.1-0.1,1.7-0.2c0.1,0,0.2,0,0.4-0.1
	c0.5-0.1,1-0.3,1.5-0.4l0.2-0.1c0.5-0.2,1-0.4,1.6-0.7l0.4-0.2c0.5-0.3,0.9-0.6,1.4-0.9l0.1-0.1c0.4-0.3,0.9-0.7,1.4-1.2
	c0.1-0.1,0.2-0.2,0.3-0.3c0.5-0.5,0.9-0.9,1.2-1.4l19.3-26c2.3-3.1,3.2-6.8,2.7-10.6c-0.1-0.5-0.2-0.9-0.3-1.4c-0.8-3.2-2.7-6-5.3-8
	L318,152.4c-0.4-0.3-0.8-0.6-1.3-0.8l-145.4-108C152.2,29.4,128.6,23.5,105,27S60.5,43,46.2,62.1C36.4,75.4,30.4,91,29,107.4
	c-9.3-0.4-18,3.7-23.5,11.2c-4.4,6-6.3,13.3-5.2,20.7s5,13.9,10.9,18.3c3.3,2.5,7,4.1,11.1,4.9c6.2,1.2,12.6,0.4,18.2-2.5
	c6.1,10.7,14.3,19.9,24.2,27.2c9.9,7.4,21.2,12.4,33.6,14.9c20.7,4.2,42.9,1,64.2-9.1c56.9-27,73.9-16.6,111,6.3
	c3.7,2.3,7.7,4.8,11.9,7.3l0.1,0.1 M32.9,143.3c-3.3,2.1-7.6,1.9-10.8-0.4c-2-1.5-3.4-3.7-3.7-6.2c-0.4-2.5,0.3-5,1.8-7.1
	c2.1-2.8,5.6-4.3,9.1-3.7c0.3,2.5,0.7,5,1.2,7.4C31.1,136.7,31.9,140.1,32.9,143.3L32.9,143.3z M60.9,73
	c11.3-15.2,27.9-25.1,46.7-27.9c8.2-1.2,16.5-1,24.5,0.6c10.2,2.1,19.8,6.3,28.2,12.6l45,33.4l-10.4,14c-3,4.1-2.2,9.8,1.9,12.8
	l18.2,13.5c2,1.5,4.4,2.1,6.8,1.7c2.4-0.4,4.6-1.6,6-3.6l10.4-14l61.3,45.6l-16.4,22.1l-0.3-0.2c-40.2-24.8-62.4-38.5-128.3-7.2
	c-28.1,13.3-57.7,11.9-79-4c-14.1-10.5-23.8-25.8-27.3-43.1l-0.1-0.4c0-0.2-0.1-0.4-0.1-0.6l-0.1-0.4c-0.5-2.9-0.8-5.8-0.8-8.7
	l-0.2-4.7l-0.1-0.1C47.1,99.5,52,85.1,60.9,73L60.9,73z M220.3,117.3c-0.2,0.3-0.6,0.3-0.9,0.1l-9.7-7.2c-0.3-0.2-0.3-0.6-0.1-0.9
	l7.1-9.6l10.7,7.9L220.3,117.3L220.3,117.3z M322.1,178.6l-14.7,19.8c-2.3-1.3-10.7-6.3-13.1-7.7l15.1-20.4L322.1,178.6L322.1,178.6
	z M286.2,205.6L286.2,205.6L286.2,205.6L286.2,205.6z"/>
<path class="st0" d="M248.9,85.9c0.2,0.5,0.5,0.9,0.8,1.3l0,0c0.5,0.7,1.2,1.2,1.9,1.5c1.5,0.7,3.2,0.8,4.8,0.1l24.2-10.5
	c2.9-1.2,4.2-4.6,3-7.4c-1.2-2.9-4.6-4.2-7.4-2.9l-24.2,10.5C249,79.7,247.7,83.1,248.9,85.9L248.9,85.9z"/>
<path class="st0" d="M243.6,76.3L243.6,76.3c0.7,0.5,1.5,0.8,2.3,0.9c2.1,0.3,4.3-0.6,5.6-2.4l14.7-21.9c1.7-2.6,1-6.1-1.5-7.9
	c-1.3-0.8-2.8-1.2-4.2-0.9s-2.8,1.1-3.6,2.4L242,68.5C240.3,71.1,241,74.6,243.6,76.3L243.6,76.3z"/>
<path class="st0" d="M228.9,74.1L228.9,74.1c0.4,0.2,0.9,0.4,1.4,0.5c0.3,0.1,0.7,0.1,1,0.2c2.7,0.2,5.2-1.6,5.8-4.3l6.1-25.7
	c0.7-3-1.2-6.1-4.2-6.8c-3-0.7-6.1,1.2-6.8,4.2l-6.1,25.7C225.5,70.3,226.6,72.8,228.9,74.1L228.9,74.1z"/>
</svg>
