<?xml version="1.0" encoding="UTF-8"?>
<svg id="a" data-name="Layer 1" xmlns="http://www.w3.org/2000/svg" viewBox="0 0 342.38 245.88">
  <defs>
    <style>
      .b {
        fill: #1f6bd6;
      }

      .c {
        fill: #1d3461;
      }
    </style>
  </defs>
  <path class="c" d="M88.18,154.5c5.91,4.39,12.49,7.23,19.27,8.59,17.85,3.6,37.03-3.05,48.59-18.61,7.71-10.38,10.92-23.17,9.02-36-1.89-12.83-8.66-24.14-19.04-31.86-10.38-7.71-23.17-10.92-36-9.02-12.83,1.89-24.14,8.66-31.86,19.04-15.94,21.47-11.45,51.91,10.02,67.85Zm4.21-57.29c4.9-6.59,12.08-10.88,20.22-12.09,3.59-.53,7.17-.43,10.62,.26,4.38,.88,8.54,2.72,12.22,5.46,13.63,10.12,16.48,29.45,6.36,43.07-10.12,13.63-29.44,16.48-43.07,6.36-13.63-10.12-16.48-29.44-6.36-43.07Z"/>
  <path class="c" d="M285.58,206.8c1.11,.67,2.24,1.35,3.4,2.03l.58,.34c4,2.37,7.74,4.53,11.42,6.59,.4,.22,.8,.42,1.21,.61,.09,.04,.19,.08,.28,.12l.11,.05c.28,.12,.55,.23,.83,.33,.13,.05,.26,.09,.48,.16,.26,.08,.51,.16,.76,.23,.15,.04,.3,.08,.51,.12l.14,.04c.18,.05,.43,.1,.51,.1,.62,.12,1.2,.2,1.76,.23h.32c.52,.04,1.03,.04,1.67,0h.26c.58-.06,1.15-.14,1.71-.25,.1-.02,.19-.04,.37-.08,.5-.12,.99-.26,1.55-.45l.21-.07c.52-.19,1.05-.43,1.57-.7l.36-.2c.49-.27,.93-.55,1.37-.87l.15-.11c.44-.33,.88-.7,1.35-1.16,.1-.1,.2-.2,.3-.31,.49-.5,.87-.94,1.2-1.4l19.32-26.01c2.27-3.06,3.22-6.82,2.66-10.61-.07-.47-.16-.93-.28-1.39-.8-3.19-2.69-6.02-5.33-7.98l-18.32-13.77c-.39-.29-.81-.55-1.27-.79L171.36,43.63c-19.15-14.22-42.73-20.13-66.39-16.64-23.66,3.49-44.52,15.96-58.75,35.11-9.84,13.25-15.78,28.89-17.23,45.33-9.26-.4-17.97,3.72-23.53,11.21-4.43,5.96-6.27,13.3-5.18,20.66,1.09,7.36,4.97,13.85,10.93,18.28,3.32,2.46,7.04,4.12,11.06,4.93,6.19,1.25,12.61,.35,18.23-2.52,6.13,10.71,14.26,19.88,24.19,27.25,9.95,7.39,21.25,12.39,33.61,14.88,20.67,4.16,42.86,1.03,64.16-9.07,56.95-27.01,73.88-16.57,110.96,6.31,3.74,2.31,7.73,4.77,11.93,7.3l.12,.07M32.88,143.28c-3.29,2.07-7.58,1.95-10.75-.41-2.03-1.51-3.36-3.73-3.73-6.24-.37-2.52,.26-5.02,1.77-7.06,2.1-2.83,5.62-4.26,9.06-3.74,.29,2.48,.69,4.97,1.18,7.39,.66,3.5,1.48,6.87,2.46,10.05Zm28.06-70.24c11.31-15.22,27.89-25.14,46.71-27.92,8.24-1.22,16.49-1.01,24.54,.61,10.25,2.06,19.75,6.31,28.24,12.62l44.98,33.41-10.38,13.98c-3.01,4.05-2.16,9.81,1.9,12.82l18.21,13.52c1.96,1.46,4.41,2.07,6.8,1.71,2.42-.36,4.56-1.64,6.02-3.6l10.38-13.98,61.33,45.55-16.43,22.12-.28-.17c-40.23-24.82-62.39-38.49-128.34-7.21-28.14,13.34-57.67,11.86-78.98-3.97-14.13-10.5-23.82-25.81-27.28-43.11l-.07-.37c-.04-.21-.08-.41-.12-.65l-.07-.41c-.46-2.87-.75-5.79-.85-8.68l-.17-4.71-.1-.07c.17-15.06,5-29.39,13.99-41.49Zm159.38,44.22c-.21,.28-.61,.34-.89,.13l-9.67-7.18c-.28-.21-.34-.61-.13-.89l7.14-9.61,10.68,7.94-7.14,9.61Zm101.79,61.3l-14.7,19.79c-2.29-1.3-10.7-6.3-13.14-7.73l15.11-20.35,12.72,8.29Zm-35.86,27h0s0,0,0,0h0Z"/>
  <path class="b" d="M248.94,85.94c.2,.46,.46,.89,.76,1.28h0c.53,.66,1.18,1.18,1.91,1.54,1.46,.72,3.2,.8,4.77,.13l24.25-10.5c2.86-1.24,4.19-4.58,2.95-7.45-1.24-2.86-4.58-4.18-7.44-2.95l-24.25,10.5c-2.87,1.24-4.19,4.58-2.95,7.44Z"/>
  <path class="b" d="M243.57,76.34h0c.71,.48,1.5,.77,2.3,.9,2.1,.32,4.3-.56,5.56-2.44l14.73-21.93c1.74-2.59,1.05-6.12-1.54-7.86-1.26-.84-2.76-1.15-4.25-.86-1.49,.29-2.77,1.14-3.61,2.4l-14.73,21.93c-1.74,2.59-1.05,6.12,1.55,7.86Z"/>
  <path class="b" d="M228.86,74.05h0c.43,.23,.9,.41,1.39,.53,.33,.08,.67,.13,1,.15,2.68,.15,5.18-1.64,5.82-4.35l6.1-25.71c.72-3.04-1.17-6.1-4.2-6.81-3.04-.73-6.09,1.17-6.82,4.2l-6.1,25.71c-.59,2.49,.57,5.07,2.81,6.29Z"/>
</svg>